<svg>
    <symbol
            data-name="Layer 1" id="screen" viewBox="0 0 32 32" xmlns="http://www.w3.org/2000/svg"><title/><path d="M30,3H2A2,2,0,0,0,0,5V24a2,2,0,0,0,2,2H14v2H10v1H22V28H18V26H30a2,2,0,0,0,2-2V5A2,2,0,0,0,30,3ZM17,28H15V26h2v2Zm14-4a1,1,0,0,1-1,1H2a1,1,0,0,1-1-1V5A1,1,0,0,1,2,4H30a1,1,0,0,1,1,1V24Z"/><path d="M2,21H30V5H2V21ZM3,6H29V20H3V6Z"/><circle cx="16" cy="23" r="1"/>
    </symbol>
    <symbol id="up-arrow" width="6" height="7" viewBox="0 0 6 7" fill="none" xmlns="http://www.w3.org/2000/svg">
        <path d="M3 0L0.113249 5H5.88675L3 0ZM3.5 7V4.5H2.5V7H3.5Z" fill="#EAEAEA"/>
    </symbol>
    <symbol id="down-arrow" width="6" height="7" viewBox="0 0 6 7" fill="none" xmlns="http://www.w3.org/2000/svg">
        <path d="M3 7L5.88675 2L0.113249 2L3 7ZM2.5 0V2.5H3.5V0L2.5 0Z" fill="#EAEAEA"/>
    </symbol>

    <symbol id="user-demo" width="208" height="122" viewBox="0 0 208 122" fill="currentColor" xmlns="http://www.w3.org/2000/svg">
        <path d="M175.5 98.6879C156.26 98.6879 146.25 109.567 146.25 115.783V118.892H204.75V115.783C204.75 109.567 194.74 98.6879 175.5 98.6879Z" fill="currentColor"/>
        <path d="M175.5 94.0254C184.475 94.0254 191.75 87.0673 191.75 78.484C191.75 69.9007 184.475 62.9426 175.5 62.9426C166.525 62.9426 159.25 69.9007 159.25 78.484C159.25 87.0673 166.525 94.0254 175.5 94.0254Z" fill="currentColor"/>
        <path d="M0 14.5701C0 6.52324 7.23518 0 16.1602 0H130.09C139.015 0 146.25 6.52324 146.25 14.5701V32.0541C146.25 40.101 139.015 46.6242 130.09 46.6242H16.1602C7.23518 46.6242 0 40.101 0 32.0541V14.5701Z" fill="currentColor"/>
        <path d="M141.697 26.2458L150.12 48.3791L125.866 44.289L141.697 26.2458Z" fill="currentColor"/>
    </symbol>

    <symbol id="input-arrow" width="25" height="25" viewBox="0 0 25 25" fill="none" xmlns="http://www.w3.org/2000/svg">
        <path d="M0 25L2.6 13.425L16.975 12.525L2.6 11.55L0 0L25 12.5L0 25Z" fill="#8482E2"/>
    </symbol>
    <symbol 
        data-name="Livello 1" id="settings" width="140" height="140" viewBox="0 0 128 128" xmlns="http://www.w3.org/2000/svg"><title/><path d="M64,39A25,25,0,1,0,89,64,25,25,0,0,0,64,39Zm0,44A19,19,0,1,1,83,64,19,19,0,0,1,64,83Z"/><path d="M121,48h-8.93a1,1,0,0,1-.94-.68,49.9,49.9,0,0,0-2-4.85,1,1,0,0,1,.18-1.15L115.62,35a7,7,0,0,0,0-9.9L102.89,12.38a7,7,0,0,0-9.9,0l-6.31,6.31a1,1,0,0,1-1.15.18,49.76,49.76,0,0,0-4.85-2,1,1,0,0,1-.68-.94V7a7,7,0,0,0-7-7H55a7,7,0,0,0-7,7v8.93a1,1,0,0,1-.68.94,49.9,49.9,0,0,0-4.85,2,1,1,0,0,1-1.15-.18L35,12.38a7,7,0,0,0-9.9,0L12.38,25.11a7,7,0,0,0,0,9.9l6.31,6.31a1,1,0,0,1,.18,1.15,49.76,49.76,0,0,0-2,4.85,1,1,0,0,1-.94.68H7a7,7,0,0,0-7,7V73a7,7,0,0,0,7,7h8.93a1,1,0,0,1,.94.68,49.9,49.9,0,0,0,2,4.85,1,1,0,0,1-.18,1.15L12.38,93a7,7,0,0,0,0,9.9l12.73,12.73a7,7,0,0,0,9.9,0l6.31-6.31a1,1,0,0,1,1.15-.18,49.76,49.76,0,0,0,4.85,2,1,1,0,0,1,.68.94V121a7,7,0,0,0,7,7H73a7,7,0,0,0,7-7v-8.93a1,1,0,0,1,.68-.94,49.9,49.9,0,0,0,4.85-2,1,1,0,0,1,1.15.18L93,115.62a7,7,0,0,0,9.9,0l12.73-12.73a7,7,0,0,0,0-9.9l-6.31-6.31a1,1,0,0,1-.18-1.15,49.76,49.76,0,0,0,2-4.85,1,1,0,0,1,.94-.68H121a7,7,0,0,0,7-7V55A7,7,0,0,0,121,48Zm1,25a1,1,0,0,1-1,1h-8.93a7,7,0,0,0-6.6,4.69,43.9,43.9,0,0,1-1.76,4.26,7,7,0,0,0,1.35,8l6.31,6.31a1,1,0,0,1,0,1.41L98.65,111.38a1,1,0,0,1-1.41,0l-6.31-6.31a7,7,0,0,0-8-1.35,43.88,43.88,0,0,1-4.27,1.76,7,7,0,0,0-4.68,6.6V121a1,1,0,0,1-1,1H55a1,1,0,0,1-1-1v-8.93a7,7,0,0,0-4.69-6.6,43.9,43.9,0,0,1-4.26-1.76,7,7,0,0,0-8,1.35l-6.31,6.31a1,1,0,0,1-1.41,0L16.62,98.65a1,1,0,0,1,0-1.41l6.31-6.31a7,7,0,0,0,1.35-8,43.88,43.88,0,0,1-1.76-4.27A7,7,0,0,0,15.93,74H7a1,1,0,0,1-1-1V55a1,1,0,0,1,1-1h8.93a7,7,0,0,0,6.6-4.69,43.9,43.9,0,0,1,1.76-4.26,7,7,0,0,0-1.35-8l-6.31-6.31a1,1,0,0,1,0-1.41L29.35,16.62a1,1,0,0,1,1.41,0l6.31,6.31a7,7,0,0,0,8,1.35,43.88,43.88,0,0,1,4.27-1.76A7,7,0,0,0,54,15.93V7a1,1,0,0,1,1-1H73a1,1,0,0,1,1,1v8.93a7,7,0,0,0,4.69,6.6,43.9,43.9,0,0,1,4.26,1.76,7,7,0,0,0,8-1.35l6.31-6.31a1,1,0,0,1,1.41,0l12.73,12.73a1,1,0,0,1,0,1.41l-6.31,6.31a7,7,0,0,0-1.35,8,43.88,43.88,0,0,1,1.76,4.27,7,7,0,0,0,6.6,4.68H121a1,1,0,0,1,1,1Z"/>
    </symbol>
    <symbol id="chat" width="140" height="140" style="enable-background:new 0 0 60 60;" version="1.1" viewBox="0 0 60 60" xml:space="preserve" xmlns="http://www.w3.org/2000/svg" xmlns:xlink="http://www.w3.org/1999/xlink"><g><path d="M10,25.465h13c0.553,0,1-0.448,1-1s-0.447-1-1-1H10c-0.553,0-1,0.448-1,1S9.447,25.465,10,25.465z"/><path d="M36,29.465H10c-0.553,0-1,0.448-1,1s0.447,1,1,1h26c0.553,0,1-0.448,1-1S36.553,29.465,36,29.465z"/><path d="M36,35.465H10c-0.553,0-1,0.448-1,1s0.447,1,1,1h26c0.553,0,1-0.448,1-1S36.553,35.465,36,35.465z"/><path d="M54.072,2.535L19.93,2.465c-3.27,0-5.93,2.66-5.93,5.93v5.124l-8.07,0.017c-3.27,0-5.93,2.66-5.93,5.93v21.141   c0,3.27,2.66,5.929,5.93,5.929H12v10c0,0.413,0.254,0.784,0.64,0.933c0.117,0.045,0.239,0.067,0.36,0.067   c0.276,0,0.547-0.115,0.74-0.327l9.704-10.675l16.626-0.068c3.27,0,5.93-2.66,5.93-5.929v-0.113l5.26,5.786   c0.193,0.212,0.464,0.327,0.74,0.327c0.121,0,0.243-0.022,0.36-0.067c0.386-0.149,0.64-0.52,0.64-0.933v-10h1.07   c3.27,0,5.93-2.66,5.93-5.929V8.465C60,5.196,57.341,2.536,54.072,2.535z M44,40.536c0,2.167-1.763,3.929-3.934,3.929l-17.07,0.07   c-0.28,0.001-0.548,0.12-0.736,0.327L14,53.949v-8.414c0-0.552-0.447-1-1-1H5.93c-2.167,0-3.93-1.763-3.93-3.929V19.465   c0-2.167,1.763-3.93,3.932-3.93l9.068-0.019c0,0,0,0,0,0c0.001,0,0.001,0,0.002,0l25.068-0.052c2.167,0,3.93,1.763,3.93,3.93   v18.441V40.536z M58,29.606c0,2.167-1.763,3.929-3.93,3.929H52c-0.553,0-1,0.448-1,1v8.414l-5-5.5V19.395   c0-3.27-2.66-5.93-5.932-5.93L16,13.514v-5.12c0-2.167,1.763-3.93,3.928-3.93l34.141,0.07c0.001,0,0.001,0,0.002,0   c2.167,0,3.93,1.763,3.93,3.93V29.606z"/></g><g/><g/><g/><g/><g/><g/><g/><g/><g/><g/><g/><g/><g/><g/><g/></symbol>

</svg>