<svg>
    <symbol
            height="24" id="user" version="1.1" viewBox="0 0 6.3499998 6.3500002" width="24" xmlns="http://www.w3.org/2000/svg" xmlns:cc="http://creativecommons.org/ns#" xmlns:dc="http://purl.org/dc/elements/1.1/" xmlns:inkscape="http://www.inkscape.org/namespaces/inkscape" xmlns:rdf="http://www.w3.org/1999/02/22-rdf-syntax-ns#" xmlns:sodipodi="http://sodipodi.sourceforge.net/DTD/sodipodi-0.dtd" xmlns:svg="http://www.w3.org/2000/svg"><defs id="defs2"/><g id="layer1"><path d="M 3.1708661,3.2974124 C 1.907863,3.2997936 0.86304935,4.299744 0.79995125,5.5634239 A 0.26460945,0.26460945 0 0 0 1.0655682,5.8404096 H 5.2864993 A 0.26460945,0.26460945 0 0 0 5.5500489,5.5634239 C 5.48687,4.2981438 4.4396051,3.2975523 3.1750001,3.2974124 Z" id="path1332" style="color:#000000;font-style:normal;font-variant:normal;font-weight:normal;font-stretch:normal;font-size:medium;line-height:normal;font-family:sans-serif;font-variant-ligatures:normal;font-variant-position:normal;font-variant-caps:normal;font-variant-numeric:normal;font-variant-alternates:normal;font-variant-east-asian:normal;font-feature-settings:normal;font-variation-settings:normal;text-indent:0;text-align:start;text-decoration:none;text-decoration-line:none;text-decoration-style:solid;text-decoration-color:#000000;letter-spacing:normal;word-spacing:normal;text-transform:none;writing-mode:lr-tb;direction:ltr;text-orientation:mixed;dominant-baseline:auto;baseline-shift:baseline;text-anchor:start;white-space:normal;shape-padding:0;shape-margin:0;inline-size:0;clip-rule:nonzero;display:inline;overflow:visible;visibility:visible;isolation:auto;mix-blend-mode:normal;color-interpolation:sRGB;color-interpolation-filters:linearRGB;solid-color:#000000;solid-opacity:1;vector-effect:none;fill:#000000;fill-opacity:1;fill-rule:nonzero;stroke:none;stroke-width:0.529167;stroke-linecap:butt;stroke-linejoin:round;stroke-miterlimit:4;stroke-dasharray:none;stroke-dashoffset:0;stroke-opacity:1;paint-order:stroke fill markers;color-rendering:auto;image-rendering:auto;shape-rendering:auto;text-rendering:auto;enable-background:accumulate;stop-color:#000000"/><path d="m 3.1750901,0.5095872 c -0.669506,0 -1.2153281,0.54839 -1.2153321,1.21864 -1.9e-6,0.6702501 0.5458221,1.2205301 1.2153321,1.2205301 0.6695099,0 1.217222,-0.55028 1.2172191,-1.2205301 -4e-6,-0.67025 -0.5477132,-1.21864 -1.2172191,-1.21864 z" id="path1292" style="color:#000000;font-style:normal;font-variant:normal;font-weight:normal;font-stretch:normal;font-size:medium;line-height:normal;font-family:sans-serif;font-variant-ligatures:normal;font-variant-position:normal;font-variant-caps:normal;font-variant-numeric:normal;font-variant-alternates:normal;font-variant-east-asian:normal;font-feature-settings:normal;font-variation-settings:normal;text-indent:0;text-align:start;text-decoration:none;text-decoration-line:none;text-decoration-style:solid;text-decoration-color:#000000;letter-spacing:normal;word-spacing:normal;text-transform:none;writing-mode:lr-tb;direction:ltr;text-orientation:mixed;dominant-baseline:auto;baseline-shift:baseline;text-anchor:start;white-space:normal;shape-padding:0;shape-margin:0;inline-size:0;clip-rule:nonzero;display:inline;overflow:visible;visibility:visible;isolation:auto;mix-blend-mode:normal;color-interpolation:sRGB;color-interpolation-filters:linearRGB;solid-color:#000000;solid-opacity:1;vector-effect:none;fill:#000000;fill-opacity:1;fill-rule:nonzero;stroke:none;stroke-width:0.529167;stroke-linecap:butt;stroke-linejoin:round;stroke-miterlimit:4;stroke-dasharray:none;stroke-dashoffset:0;stroke-opacity:1;paint-order:stroke fill markers;color-rendering:auto;image-rendering:auto;shape-rendering:auto;text-rendering:auto;enable-background:accumulate;stop-color:#000000"/></g>
    </symbol>

    <symbol
            data-name="Layer 1" id="screen" viewBox="0 0 32 32" xmlns="http://www.w3.org/2000/svg"><title/><path d="M30,3H2A2,2,0,0,0,0,5V24a2,2,0,0,0,2,2H14v2H10v1H22V28H18V26H30a2,2,0,0,0,2-2V5A2,2,0,0,0,30,3ZM17,28H15V26h2v2Zm14-4a1,1,0,0,1-1,1H2a1,1,0,0,1-1-1V5A1,1,0,0,1,2,4H30a1,1,0,0,1,1,1V24Z"/><path d="M2,21H30V5H2V21ZM3,6H29V20H3V6Z"/><circle cx="16" cy="23" r="1"/>
    </symbol>
    <symbol id="up-arrow" width="6" height="7" viewBox="0 0 6 7" fill="none" xmlns="http://www.w3.org/2000/svg">
        <path d="M3 0L0.113249 5H5.88675L3 0ZM3.5 7V4.5H2.5V7H3.5Z" fill="#EAEAEA"/>
    </symbol>
    <symbol id="down-arrow" width="6" height="7" viewBox="0 0 6 7" fill="none" xmlns="http://www.w3.org/2000/svg">
        <path d="M3 7L5.88675 2L0.113249 2L3 7ZM2.5 0V2.5H3.5V0L2.5 0Z" fill="#EAEAEA"/>
    </symbol>

    <symbol id="user-demo" width="208" height="122" viewBox="0 0 208 122" fill="currentColor" xmlns="http://www.w3.org/2000/svg">
        <path d="M175.5 98.6879C156.26 98.6879 146.25 109.567 146.25 115.783V118.892H204.75V115.783C204.75 109.567 194.74 98.6879 175.5 98.6879Z" fill="currentColor"/>
        <path d="M175.5 94.0254C184.475 94.0254 191.75 87.0673 191.75 78.484C191.75 69.9007 184.475 62.9426 175.5 62.9426C166.525 62.9426 159.25 69.9007 159.25 78.484C159.25 87.0673 166.525 94.0254 175.5 94.0254Z" fill="currentColor"/>
        <path d="M0 14.5701C0 6.52324 7.23518 0 16.1602 0H130.09C139.015 0 146.25 6.52324 146.25 14.5701V32.0541C146.25 40.101 139.015 46.6242 130.09 46.6242H16.1602C7.23518 46.6242 0 40.101 0 32.0541V14.5701Z" fill="currentColor"/>
        <path d="M141.697 26.2458L150.12 48.3791L125.866 44.289L141.697 26.2458Z" fill="currentColor"/>
    </symbol>

    <symbol id="input-arrow" width="25" height="25" viewBox="0 0 25 25" fill="none" xmlns="http://www.w3.org/2000/svg">
        <path d="M0 25L2.6 13.425L16.975 12.525L2.6 11.55L0 0L25 12.5L0 25Z" fill="#8482E2"/>
    </symbol>


</svg>